<svg width="56" height="35" viewBox="0 0 56 35" fill="none" xmlns="http://www.w3.org/2000/svg">
<path d="M13.8667 5.03268H15.4667V29.1895H13.8667V5.03268Z" fill="white"/>
<path d="M10.6667 5.03268H12.2667V29.1895H10.6667V5.03268Z" fill="white"/>
<path d="M20.8 5.03268H21.8667V29.1895H20.8V5.03268Z" fill="white"/>
<path d="M23.4667 5.03268H25.6V29.1895H23.4667V5.03268Z" fill="white"/>
<path d="M5.8667 5.03268H8.53337V29.1895H5.8667V5.03268Z" fill="white"/>
<path d="M17.0667 5.03268H19.7333V29.1895H17.0667V5.03268Z" fill="white"/>
<path d="M43.7334 29.1895H41.6001V5.03268H43.7334V29.1895Z" fill="white"/>
<path d="M46.4 29.1895H45.3334V5.03268H46.4V29.1895Z" fill="white"/>
<path d="M35.7334 29.1895H34.6667V5.03268H35.7334V29.1895Z" fill="white"/>
<path d="M28.8 29.1895H27.7334V5.03268H28.8V29.1895Z" fill="white"/>
<path d="M33.0667 29.1895H30.9333V5.03268H33.0667V29.1895Z" fill="white"/>
<path d="M50.6667 29.1895H48.5334V5.03268H50.6667V29.1895Z" fill="white"/>
<path d="M40 29.1895H37.3333V5.03268H40V29.1895Z" fill="white"/>
<path d="M54.9333 16.1046V18.1176H1.06668V16.1046H54.9333Z" fill="#585666"/>
<path fill-rule="evenodd" clip-rule="evenodd" d="M1.06667 0H0V1.00654V6.03922H1.06667V1.00654L6.4 1.00654V0H1.06667Z" fill="white"/>
<path fill-rule="evenodd" clip-rule="evenodd" d="M54.9333 34.2222L56 34.2222L56 33.2157L56 28.183L54.9333 28.183L54.9333 33.2157L49.6 33.2157L49.6 34.2222L54.9333 34.2222Z" fill="white"/>
<path fill-rule="evenodd" clip-rule="evenodd" d="M56 6.03922L56 1.00654L56 0L54.9333 0L49.6 -1.7656e-07L49.6 1.00654L54.9333 1.00654L54.9333 6.03922L56 6.03922Z" fill="white"/>
<path fill-rule="evenodd" clip-rule="evenodd" d="M3.5364e-07 33.2157L2.32441e-07 34.2222L1.06667 34.2222L6.4 34.2222L6.4 33.2157L1.06667 33.2157L1.06667 28.183L7.91947e-07 28.183L3.5364e-07 33.2157Z" fill="white"/>
</svg>
