<svg width="24" height="25" viewBox="0 0 24 25" fill="none" xmlns="http://www.w3.org/2000/svg">
<g clip-path="url(#clip0)">
<path d="M23.9873 12.474C23.9873 11.4706 23.9057 10.7385 23.729 9.97919H12.239V14.5077H18.9833C18.8474 15.6332 18.1132 17.328 16.4814 18.4669L16.4585 18.6185L20.0915 21.4248L20.3431 21.4499C22.6547 19.3211 23.9873 16.189 23.9873 12.474Z" fill="#4285F4"/>
<path d="M12.2391 24.4058C15.5433 24.4058 18.3171 23.321 20.3432 21.45L16.4815 18.467C15.4481 19.1856 14.0611 19.6872 12.2391 19.6872C9.00287 19.6872 6.25618 17.5586 5.27706 14.6163L5.13354 14.6285L1.35598 17.5436L1.30658 17.6806C3.319 21.6668 7.45268 24.4058 12.2391 24.4058Z" fill="#34A853"/>
<path d="M5.27702 14.6163C5.01867 13.857 4.86916 13.0434 4.86916 12.2028C4.86916 11.3621 5.01867 10.5487 5.26343 9.78938L5.25659 9.62767L1.4317 6.66571L1.30655 6.72507C0.47714 8.37925 0.0012207 10.2368 0.0012207 12.2028C0.0012207 14.1688 0.47714 16.0263 1.30655 17.6805L5.27702 14.6163Z" fill="#FBBC05"/>
<path d="M12.239 4.7184C14.537 4.7184 16.0871 5.70818 16.971 6.53532L20.4247 3.17274C18.3036 1.20673 15.5432 0 12.239 0C7.45266 0 3.319 2.73884 1.30658 6.72507L5.26345 9.78938C6.25616 6.84714 9.00285 4.7184 12.239 4.7184Z" fill="#EB4335"/>
</g>
<defs>
<clipPath id="clip0">
<rect width="24" height="24.4898" fill="white"/>
</clipPath>
</defs>
</svg>
